<svg xmlns="http://www.w3.org/2000/svg" viewBox="0 0 400 300" role="img" aria-label="Sterile Glasvials (10 Stk.) – 10 ml Vial">
  <defs>
    <linearGradient id="bgvials" x1="0" y1="0" x2="0" y2="1">
      <stop offset="0" stop-color="#fdfefe"/><stop offset="0.6" stop-color="#f3f7fa"/><stop offset="1" stop-color="#0891b2" stop-opacity="0.10"/>
    </linearGradient>
    <radialGradient id="spotvials" cx="50%" cy="34%" r="60%">
      <stop offset="0" stop-color="#ffffff"/><stop offset="1" stop-color="#ffffff" stop-opacity="0"/>
    </radialGradient>
    <linearGradient id="glassvials" x1="0" y1="0" x2="1" y2="0">
      <stop offset="0" stop-color="#ffffff" stop-opacity="0.95"/><stop offset="0.5" stop-color="#eef3f7"/><stop offset="1" stop-color="#cdd8e2"/>
    </linearGradient>
    <linearGradient id="liqvials" x1="0" y1="0" x2="0" y2="1">
      <stop offset="0" stop-color="#0891b2"/><stop offset="1" stop-color="#056b83"/>
    </linearGradient>
    <linearGradient id="capvials" x1="0" y1="0" x2="1" y2="0">
      <stop offset="0" stop-color="#09abd2"/><stop offset="0.5" stop-color="#0891b2"/><stop offset="1" stop-color="#056b83"/>
    </linearGradient>
  </defs>
  <rect width="400" height="300" fill="url(#bgvials)"/>
  <rect width="400" height="300" fill="url(#spotvials)"/>
  <line x1="322.0" y1="56.0" x2="348.0" y2="71.0" stroke="#0891b2" stroke-width="1.6" opacity="0.5"/><line x1="348.0" y1="71.0" x2="348.0" y2="101.0" stroke="#0891b2" stroke-width="1.6" opacity="0.5"/><line x1="348.0" y1="101.0" x2="322.0" y2="116.0" stroke="#0891b2" stroke-width="1.6" opacity="0.5"/><line x1="322.0" y1="116.0" x2="296.0" y2="101.0" stroke="#0891b2" stroke-width="1.6" opacity="0.5"/><line x1="296.0" y1="101.0" x2="296.0" y2="71.0" stroke="#0891b2" stroke-width="1.6" opacity="0.5"/><line x1="296.0" y1="71.0" x2="322.0" y2="56.0" stroke="#0891b2" stroke-width="1.6" opacity="0.5"/><circle cx="322.0" cy="56.0" r="3.4" fill="#0891b2" opacity="0.7"/><circle cx="348.0" cy="71.0" r="3.4" fill="#0891b2" opacity="0.7"/><circle cx="348.0" cy="101.0" r="3.4" fill="#0891b2" opacity="0.7"/><circle cx="322.0" cy="116.0" r="3.4" fill="#0891b2" opacity="0.7"/><circle cx="296.0" cy="101.0" r="3.4" fill="#0891b2" opacity="0.7"/><circle cx="296.0" cy="71.0" r="3.4" fill="#0891b2" opacity="0.7"/><line x1="348.0" y1="71.0" x2="372.0" y2="59.0" stroke="#0891b2" stroke-width="1.6" opacity="0.4"/><circle cx="372.0" cy="59.0" r="3" fill="#0891b2" opacity="0.5"/>
  <!-- weicher Bodenschatten -->
  <ellipse cx="200" cy="256" rx="62" ry="12" fill="#056b83" opacity="0.18"/>
  <!-- Vial -->
  <g transform="translate(168,58)">
    <!-- Bördelkappe -->
    <rect x="16" y="0" width="32" height="9" rx="2" fill="#09abd2"/>
    <rect x="12" y="8" width="40" height="16" rx="3" fill="url(#capvials)"/>
    <rect x="16" y="11" width="6" height="10" rx="2" fill="#ffffff" opacity="0.35"/>
    <!-- Hals -->
    <rect x="22" y="24" width="20" height="10" fill="#dde6ee"/>
    <!-- Glaskörper -->
    <path d="M14 44 Q14 34 26 34 H38 Q50 34 50 44 V178 Q50 192 38 192 H26 Q14 192 14 178 Z" fill="url(#glassvials)" stroke="#c2cedb" stroke-width="1"/>
    <!-- Flüssigkeit -->
    <path d="M17 96 H47 V176 Q47 189 36 189 H28 Q17 189 17 176 Z" fill="url(#liqvials)"/>
    <ellipse cx="32" cy="96" rx="15" ry="3.4" fill="#ffffff" opacity="0.25"/>
    <!-- Glanzlichter -->
    <rect x="20" y="44" width="5" height="138" rx="2.5" fill="#ffffff" opacity="0.7"/>
    <rect x="42" y="60" width="3" height="110" rx="1.5" fill="#ffffff" opacity="0.35"/>
  </g>
  <text x="22" y="280" font-family="'Spline Sans Mono', ui-monospace, monospace" font-size="13" fill="#056b83" opacity="0.9" letter-spacing="0.5">10 ml</text>
  <text x="378" y="280" text-anchor="end" font-family="'Spline Sans Mono', ui-monospace, monospace" font-size="11" fill="#056b83" opacity="0.55" letter-spacing="1">HELIX</text>
</svg>