<svg xmlns="http://www.w3.org/2000/svg" viewBox="0 0 400 300" role="img" aria-label="Sterile Glasvials (10 Stk.) – 10 ml Vial">
  <defs>
    <linearGradient id="bg" x1="0" y1="0" x2="1" y2="1"><stop offset="0" stop-color="#0891b2"/><stop offset="1" stop-color="#056279"/></linearGradient>
    <linearGradient id="liq" x1="0" y1="0" x2="0" y2="1"><stop offset="0" stop-color="#fff" stop-opacity=".55"/><stop offset="1" stop-color="#fff" stop-opacity=".12"/></linearGradient>
  </defs>
  <rect width="400" height="300" fill="url(#bg)"/>
  <circle cx="330" cy="64" r="120" fill="#fff" opacity="0.06"/>
  <circle cx="60" cy="250" r="90" fill="#fff" opacity="0.05"/>
  <line x1="96.0" y1="62.0" x2="125.4" y2="79.0" stroke="#fff" stroke-width="2.4" opacity="0.65"/><line x1="125.4" y1="79.0" x2="125.4" y2="113.0" stroke="#fff" stroke-width="2.4" opacity="0.65"/><line x1="125.4" y1="113.0" x2="96.0" y2="130.0" stroke="#fff" stroke-width="2.4" opacity="0.65"/><line x1="96.0" y1="130.0" x2="66.6" y2="113.0" stroke="#fff" stroke-width="2.4" opacity="0.65"/><line x1="66.6" y1="113.0" x2="66.6" y2="79.0" stroke="#fff" stroke-width="2.4" opacity="0.65"/><line x1="66.6" y1="79.0" x2="96.0" y2="62.0" stroke="#fff" stroke-width="2.4" opacity="0.65"/><circle cx="96.0" cy="62.0" r="6" fill="#fff" opacity="0.92"/><circle cx="125.4" cy="79.0" r="6" fill="#fff" opacity="0.92"/><circle cx="125.4" cy="113.0" r="6" fill="#fff" opacity="0.92"/><circle cx="96.0" cy="130.0" r="6" fill="#fff" opacity="0.92"/><circle cx="66.6" cy="113.0" r="6" fill="#fff" opacity="0.92"/><circle cx="66.6" cy="79.0" r="6" fill="#fff" opacity="0.92"/><circle cx="120" cy="241" r="8" fill="#fff" opacity="0.9"/><line x1="120" y1="241" x2="148" y2="259" stroke="#fff" stroke-width="3" opacity="0.6"/><circle cx="148" cy="259" r="8" fill="#fff" opacity="0.9"/><line x1="148" y1="259" x2="176" y2="241" stroke="#fff" stroke-width="3" opacity="0.6"/><circle cx="176" cy="241" r="8" fill="#fff" opacity="0.9"/><line x1="176" y1="241" x2="204" y2="259" stroke="#fff" stroke-width="3" opacity="0.6"/><circle cx="204" cy="259" r="8" fill="#fff" opacity="0.9"/><line x1="204" y1="259" x2="232" y2="241" stroke="#fff" stroke-width="3" opacity="0.6"/><circle cx="232" cy="241" r="8" fill="#fff" opacity="0.9"/><line x1="232" y1="241" x2="260" y2="259" stroke="#fff" stroke-width="3" opacity="0.6"/><circle cx="260" cy="259" r="8" fill="#fff" opacity="0.9"/>
  <g transform="translate(232,68)">
    <rect x="14" y="-14" width="22" height="16" rx="3" fill="#e7edf2"/>
    <rect x="10" y="0" width="30" height="10" rx="2" fill="#c1cdd9"/>
    <rect x="6" y="10" width="38" height="150" rx="12" fill="#fff" opacity="0.92"/>
    <rect x="6" y="74" width="38" height="86" rx="12" fill="url(#liq)"/>
    <rect x="13" y="16" width="6" height="40" rx="3" fill="#fff" opacity="0.85"/>
  </g>
  <text x="20" y="280" font-family="'Spline Sans Mono', monospace" font-size="14" fill="#fff" opacity="0.85" letter-spacing="0.5">10 ml</text>
</svg>